<?xml version="1.0" encoding="utf-8"?>
<!-- Generator: Adobe Illustrator 19.2.1, SVG Export Plug-In . SVG Version: 6.00 Build 0)  -->
<svg version="1.1" id="Layer_1" xmlns="http://www.w3.org/2000/svg" xmlns:xlink="http://www.w3.org/1999/xlink" x="0px" y="0px"
	 viewBox="0 0 1024 1024" enable-background="new 0 0 1024 1024" xml:space="preserve">
<g>
	<path fill="#1A2A51" d="M404.3,446.9c0.7,36.9,15.8,66.5,45.7,88.3c4.6,3.3,9.1,6.9,14,9.6c5.5,3,6.4,6.4,4,12.2
		c-20.7,49.6-41.2,99.3-61.8,148.9c-7,17-7.1,17-23.5,8.4c-5.8-3-11.8-6-17.3-9.5c-5-3.2-8.9-2.6-13.6,0.6
		c-22.7,15.8-45.7,31.3-68.4,47.1c-5.2,3.7-8.7,3.7-13.4-1.1c-21-21.4-42.2-42.6-63.6-63.6c-4.2-4.2-4.5-7.4-1.1-12.3
		c16.2-23.3,32.1-46.8,48.3-70c3.4-4.9,3.8-9.1,1.6-14.5c-9-21.8-17.8-43.7-26.4-65.6c-2.1-5.3-5.2-7.8-10.8-8.8
		c-28.6-5.1-57.1-10.7-85.7-15.8c-5.3-0.9-7.4-3.3-7.4-8.6c0.1-30.7,0.1-61.3,0-92c0-5.9,2.9-7.9,8.1-8.8
		c29.5-5.4,58.9-11,88.3-16.3c4.8-0.9,7.7-3.1,9.5-7.5c9-21.3,18.1-42.6,27.4-63.8c2.1-4.8,1.1-8.5-1.7-12.6
		c-16.9-24.4-33.5-49.1-50.6-73.4c-3.8-5.5-4-9,1-13.9c21.3-20.8,42.3-41.9,63.1-63.1c4.3-4.4,7.7-4.9,12.8-1.3
		c24.9,17.4,50.2,34.4,75.1,51.8c5.1,3.6,9.3,3.9,15,1.4c19.6-8.4,39.3-16.4,59.1-24.2c5.1-2,7.5-5.2,8.4-10.4
		c5.5-30.1,11.2-60.2,16.6-90.4c1.1-6.4,3.9-8.7,10.4-8.7c29.7,0.2,59.5,0.2,89.2,0c6,0,8.9,1.9,10,8.2c5.4,30.4,11.4,60.6,16.8,91
		c1,5.4,3.5,8.3,8.5,10.2c20.4,8.2,40.7,16.5,61,25c4.6,1.9,8.1,1,12-1.7c25.2-17.4,50.6-34.6,75.7-52.1c5.3-3.7,8.7-3.6,13.4,1.1
		c20.8,21.3,41.9,42.3,63.1,63.1c4.7,4.6,4.8,8.1,1.1,13.4c-17,24.4-33.6,49-50.6,73.4c-3.4,4.9-3.8,9-1.3,14.4
		c9,20.3,17.7,40.8,26.3,61.3c2.1,5.1,5.2,7.7,10.9,8.7c29.3,5.1,58.4,10.8,87.7,16.1c5.3,1,7.8,3.1,7.8,9
		c-0.2,30.4-0.2,60.9,0,91.3c0,5.5-1.8,8.1-7.5,9.1c-28.8,5.1-57.5,10.7-86.3,15.9c-4.8,0.9-7.7,3-9.5,7.5
		c-9,22.8-18.1,45.5-27.3,68.2c-1.8,4.5-1.2,8.1,1.5,12c16.2,23.3,32,46.8,48.3,70c3.8,5.5,3.9,9.1-1.1,14
		c-21.3,20.8-42.3,41.9-63.1,63.1c-4.4,4.5-7.7,4.7-12.8,1.1c-22.7-15.9-45.7-31.3-68.4-47.1c-4.9-3.4-8.9-4-14.2-0.8
		c-8.7,5.2-18,9.6-26.9,14.6c-4.5,2.5-7.3,2.2-9.4-3C600,662.6,577.8,609,555.5,555.4c-2.2-5.3,0-7.8,4.2-10.4
		c19.7-12.2,37.5-26.7,47.9-48c20.2-41.4,17.4-81.6-11.4-117.5c-29.2-36.4-68.5-49-113.4-36.4c-44,12.3-69.7,43-77.6,88.2
		c-0.4,2.2-0.8,4.5-0.9,6.7C404.2,441,404.3,443.9,404.3,446.9z M877.1,446.5c0-9.1-0.6-18.2,0.2-27.2c0.7-7.8-3.2-9.2-9.4-10.3
		c-28.3-5-56.5-10.4-84.8-15.5c-3.9-0.7-5.9-2.4-6.7-6.2c-6.6-30.3-19.2-58-35.7-84.1c-2.9-4.5-2.3-7.4,0.5-11.4
		c17.2-24.8,34.1-49.8,51.3-74.5c2.4-3.5,2.3-5.5-0.7-8.5c-14-13.6-27.8-27.5-41.4-41.4c-3.3-3.3-5.7-4.1-9.8-1.2
		c-24.7,17.2-49.8,34.1-74.4,51.5c-4.6,3.3-8,3.7-12.7,0.7c-25.2-15.8-52.4-26.9-81.5-32.9c-3.8-0.8-5.9-2.7-6.6-6.5
		c-5.5-30.5-11.2-60.9-16.6-91.5c-0.8-4.6-2-6.8-7.2-6.7c-19.8,0.3-39.5,0.2-59.3,0c-4.3,0-5.6,1.3-6.4,5.6
		c-5.5,30.5-11.6,60.9-16.9,91.4c-0.9,5.2-3.2,6.9-7.5,7.8c-29.4,6.3-56.5,18-82.1,33.5c-3.8,2.3-6.2,2.1-9.7-0.3
		c-25.2-17.4-50.6-34.5-75.6-52.1c-4.1-2.9-6.2-2.8-9.6,0.7c-13.5,13.8-27.1,27.5-41,40.9c-4.1,3.9-3.7,6.6-0.7,10.8
		c17.2,24.5,34.1,49.2,51.2,73.8c2.3,3.3,2.8,5.8,0.3,9.6c-16.8,25.1-28.9,52.4-35.6,81.8c-1.6,7-4.9,8.9-11,10
		c-28.5,5.1-56.9,10.8-85.4,15.8c-4.9,0.9-5.6,2.9-5.6,7.1c0.2,19.1,0.3,38.2-0.1,57.2c-0.1,6,2.2,7.6,7.6,8.6
		c27.4,4.8,54.7,10.2,82.1,15c6.1,1.1,8.9,3.5,10.1,9.9c5.9,29.6,17,57.4,32.9,83c3.9,6.3,3.6,10.6-0.5,16.3
		c-15.7,22.2-30.8,44.8-46.4,67.2c-2.9,4.2-2.7,6.8,1,10.4c13.4,13,26.6,26.1,39.5,39.5c4.2,4.4,6.9,5.1,12.2,1.4
		c22-15.6,44.4-30.6,66.5-46.1c4.7-3.3,8.4-4,13.4-0.4c5.6,4.2,12,7.3,17.9,11.1c3.9,2.5,5.8,2.3,7.7-2.5
		c17-41.5,34.3-83,51.6-124.4c1.8-4.3,0.4-6.2-3.1-8.8c-44.7-32.2-63.7-76-55.1-130.2c11.1-70.2,79.6-118.1,149.2-106.2
		c68.1,11.6,115.6,74.2,108.3,141.7c-4.1,37.9-21.6,67.7-51.1,90.9c-9.8,7.7-10,7.6-5.3,19.2c16.2,39.4,32.7,78.7,48.8,118.2
		c1.6,3.9,2.9,4.4,6.3,2.4c6.8-4.1,13.9-7.8,20.4-12.3c4-2.8,6.8-2.5,10.7,0.1c23.1,16.1,46.4,31.8,69.4,47.9c3.8,2.7,5.9,2.4,9-0.8
		c13.6-14,27.4-27.8,41.5-41.4c3.5-3.4,3.6-5.6,0.9-9.6c-16.1-23-31.8-46.4-47.9-69.4c-3.1-4.4-3.3-7.6-0.4-12.1
		c17.1-26.6,28.2-55.8,34.7-86.6c1.1-5.1,3-7.2,7.9-8.1c28.3-5.1,56.5-10.4,84.8-15.4c4.9-0.9,6.4-2.9,6.2-7.6
		C876.9,465.6,877.1,456.1,877.1,446.5z"/>
	<path fill="#405EA7" d="M877.1,446.5c0,9.5-0.2,19.1,0.1,28.6c0.2,4.8-1.4,6.8-6.2,7.6c-28.3,5-56.5,10.4-84.8,15.4
		c-4.9,0.9-6.8,2.9-7.9,8.1c-6.6,30.8-17.6,60-34.7,86.6c-2.9,4.5-2.6,7.8,0.4,12.1c16.1,23,31.8,46.4,47.9,69.4
		c2.8,4,2.7,6.1-0.9,9.6c-14,13.6-27.8,27.4-41.5,41.4c-3.2,3.2-5.2,3.5-9,0.8c-23-16.1-46.4-31.8-69.4-47.9
		c-3.9-2.7-6.6-3-10.7-0.1c-6.5,4.5-13.6,8.2-20.4,12.3c-3.3,2-4.7,1.5-6.3-2.4c-16.1-39.5-32.5-78.8-48.8-118.2
		c-4.8-11.6-4.5-11.5,5.3-19.2c29.6-23.2,47-53.1,51.1-90.9c7.3-67.5-40.2-130.1-108.3-141.7c-69.7-11.9-138.1,36-149.2,106.2
		c-8.6,54.2,10.4,98,55.1,130.2c3.5,2.6,4.9,4.5,3.1,8.8c-17.3,41.4-34.6,82.8-51.6,124.4c-2,4.8-3.8,5-7.7,2.5
		c-5.9-3.8-12.3-6.9-17.9-11.1c-4.9-3.6-8.6-3-13.4,0.4c-22.1,15.5-44.6,30.5-66.5,46.1c-5.3,3.7-8,3.1-12.2-1.4
		c-12.9-13.5-26.1-26.6-39.5-39.5c-3.7-3.6-3.9-6.2-1-10.4c15.6-22.3,30.7-44.9,46.4-67.2c4.1-5.8,4.4-10,0.5-16.3
		c-15.9-25.6-27-53.4-32.9-83c-1.3-6.4-4-8.9-10.1-9.9c-27.4-4.8-54.7-10.1-82.1-15c-5.3-0.9-7.7-2.5-7.6-8.6
		c0.4-19.1,0.3-38.2,0.1-57.2c0-4.2,0.6-6.2,5.6-7.1c28.5-5,56.9-10.6,85.4-15.8c6.1-1.1,9.4-3,11-10c6.7-29.4,18.8-56.7,35.6-81.8
		c2.5-3.8,2.1-6.2-0.3-9.6c-17.1-24.6-34-49.3-51.2-73.8c-2.9-4.2-3.4-6.9,0.7-10.8c13.9-13.4,27.5-27.1,41-40.9
		c3.4-3.5,5.5-3.5,9.6-0.7c25.1,17.6,50.5,34.7,75.6,52.1c3.5,2.4,5.9,2.6,9.7,0.3c25.6-15.5,52.7-27.2,82.1-33.5
		c4.3-0.9,6.6-2.5,7.5-7.8c5.3-30.5,11.4-60.9,16.9-91.4c0.8-4.3,2.1-5.6,6.4-5.6c19.8,0.2,39.5,0.2,59.3,0c5.1-0.1,6.4,2.1,7.2,6.7
		c5.4,30.5,11,61,16.6,91.5c0.7,3.9,2.8,5.8,6.6,6.5c29.1,6.1,56.3,17.2,81.5,32.9c4.8,3,8.1,2.6,12.7-0.7
		c24.7-17.4,49.7-34.2,74.4-51.5c4.1-2.8,6.5-2.1,9.8,1.2c13.6,14,27.5,27.8,41.4,41.4c3.1,3,3.2,5,0.7,8.5
		c-17.2,24.8-34.1,49.8-51.3,74.5c-2.8,4-3.4,6.9-0.5,11.4c16.5,26,29.2,53.8,35.7,84.1c0.8,3.8,2.8,5.5,6.7,6.2
		c28.3,5.1,56.5,10.5,84.8,15.5c6.3,1.1,10.2,2.5,9.4,10.3C876.5,428.3,877.1,437.4,877.1,446.5z"/>
</g>
<text transform="matrix(1 0 0 1 0.9781 942.7158)" font-family="'Arial-ItalicMT'" font-size="223.2785px">OpenHAK</text>
</svg>
